Coordinates
version=1
nRows=10
nColumns=38
inDegrees=yes

Units are S.I. units (second, meters, Newtons, ...)
Angles are in degrees.

endheader
time	pelvis_tilt	pelvis_list	pelvis_rotation	pelvis_tx	pelvis_ty	pelvis_tz	hip_flexion_r	hip_adduction_r	hip_rotation_r	knee_angle_r	ankle_angle_r	subtalar_angle_r	mtp_angle_r	hip_flexion_l	hip_adduction_l	hip_rotation_l	knee_angle_l	ankle_angle_l	subtalar_angle_l	mtp_angle_l	lumbar_extension	lumbar_bending	lumbar_rotation	arm_flex_r	arm_add_r	arm_rot_r	elbow_flex_r	pro_sup_r	wrist_flex_r	wrist_dev_r	arm_flex_l	arm_add_l	arm_rot_l	elbow_flex_l	pro_sup_l	wrist_flex_l	wrist_dev_l
      2.12000000	      1.43286409	      3.54665442	     -1.88870220	      0.95151664	      0.97738253	     -0.26467542	     13.51475842	     -9.80071761	     -8.13168832	    -68.91198065	      1.30364448	      0.00000000	      0.00000000	     10.88315190	      7.19340063	     -6.87894458	    -18.35605499	      6.83476591	      0.00000000	      0.00000000	    -12.28087099	     -3.67337363	      0.00925096	     -1.08716944	    -11.32788695	     24.67728520	     49.25879413	     44.04284041	      0.00000000	      0.00000000	      1.15478042	     -8.77965652	     39.23048409	     28.56585496	     44.04284041	      0.00000000	      0.00000000
      2.13000000	      1.34836794	      3.22040642	     -1.57004711	      0.96395010	      0.97901385	     -0.26557935	     15.06040243	     -9.36715640	     -8.26865676	    -68.57315004	      2.41956638	      0.00000000	      0.00000000	      9.68571457	      7.03792702	     -6.02608882	    -17.52024370	      7.22196775	      0.00000000	      0.00000000	    -12.21477567	     -3.15227754	     -0.38327763	     -1.71123793	    -11.28971119	     24.79971048	     48.82679963	     44.04623080	      0.00000000	      0.00000000	      2.30817403	     -8.84230487	     39.19184618	     28.93454413	     44.04623080	      0.00000000	      0.00000000
      2.14000000	      1.30726607	      2.28830346	     -0.67322669	      0.97648473	      0.98073178	     -0.26697771	     16.22785866	     -8.32244726	     -8.99771087	    -67.65669304	      2.58959772	      0.00000000	      0.00000000	      8.70313414	      6.27600480	     -4.71549227	    -17.25584848	      7.93217228	      0.00000000	      0.00000000	    -12.19123073	     -1.87538729	     -1.22048894	     -2.25864660	    -11.22341003	     25.03777047	     47.40597461	     44.06064077	      0.00000000	      0.00000000	      3.28357020	     -8.93889871	     39.40900240	     29.85184865	     44.06064077	      0.00000000	      0.00000000
      2.15000000	      1.14241077	      2.12387119	     -0.28438858	      0.98875684	      0.98181229	     -0.26797431	     17.68466599	     -8.10295523	     -9.30457970	    -66.68516996	      3.39863072	      0.00000000	      0.00000000	      7.44847692	      6.25951719	     -4.32706179	    -15.99092500	      8.18493980	      0.00000000	      0.00000000	    -12.03569427	     -1.55425635	     -1.79486167	     -2.80099983	    -11.14553569	     25.19861907	     46.90338853	     44.06555851	      0.00000000	      0.00000000	      4.34128203	     -9.06880934	     39.38289877	     30.31145338	     44.06555851	      0.00000000	      0.00000000
      2.16000000	      1.29845353	      1.63803164	      0.51612296	      1.00157488	      0.98317936	     -0.26950044	     18.47461423	     -7.73516204	    -10.21524204	    -65.23225587	      3.82135124	      0.00000000	      0.00000000	      6.07627095	      5.91152360	     -3.32069540	    -15.32026255	      8.67545681	      0.00000000	      0.00000000	    -12.16792573	     -0.76524505	     -2.78483163	     -2.89839160	    -10.90152593	     25.90750652	     44.79228693	     44.09685158	      0.00000000	      0.00000000	      5.06659377	     -9.58642439	     39.63887641	     32.07193516	     44.09685158	      0.00000000	      0.00000000
      2.17000000	      1.11626328	      1.57064232	      0.84354098	      1.01410144	      0.98350366	     -0.27047664	     19.80920911	     -7.72425366	    -10.62683059	    -63.76285679	      4.32675208	      0.00000000	      0.00000000	      5.02501531	      5.93927841	     -2.99796586	    -14.48847071	      9.02890048	      0.00000000	      0.00000000	    -11.94066213	     -0.56894652	     -3.22835405	     -3.62083217	    -10.91623880	     26.09805338	     44.41343404	     44.10127532	      0.00000000	      0.00000000	      6.12859651	     -9.67823822	     39.52085765	     32.50963361	     44.10127532	      0.00000000	      0.00000000
      2.18000000	      1.14700583	      1.23407508	      1.77021938	      1.02672922	      0.98395530	     -0.27217450	     20.53837238	     -7.69218530	    -11.89839053	    -61.79059405	      4.69824467	      0.00000000	      0.00000000	      3.88581287	      5.68075540	     -1.91464614	    -14.00414709	      9.45627440	      0.00000000	      0.00000000	    -11.94002389	      0.05099497	     -4.34001988	     -3.98957609	    -10.81045970	     26.64597843	     43.23191673	     44.12277748	      0.00000000	      0.00000000	      6.87195418	    -10.12185710	     39.41170467	     34.03998432	     44.12277748	      0.00000000	      0.00000000
      2.19000000	      1.06655140	      1.27930024	      2.23984927	      1.03926605	      0.98378812	     -0.27318057	     21.55607221	     -7.93669882	    -12.62432619	    -59.79769424	      4.86266373	      0.00000000	      0.00000000	      2.77462989	      5.80013331	     -1.48222119	    -13.21755035	     10.03058927	      0.00000000	      0.00000000	    -11.84076505	      0.11526226	     -5.11378732	     -3.49649563	    -10.97970926	     31.11645928	     40.03850521	     44.30328204	      0.00000000	      0.00000000	      6.43421714	    -10.62175658	     34.81759371	     38.48301397	     44.30328204	      0.00000000	      0.00000000
      2.20000000	      1.15789081	      1.33589026	      2.81481775	      1.05199074	      0.98352790	     -0.27435209	     22.12932288	     -8.20495235	    -13.54507140	    -57.42901651	      5.21402495	      0.00000000	      0.00000000	      1.47538671	      5.89581355	     -0.80212444	    -12.51642614	     10.51795998	      0.00000000	      0.00000000	    -11.91931780	      0.20672232	     -5.87245397	     -4.13983755	    -10.86103345	     31.04681064	     39.57956003	     44.32137521	      0.00000000	      0.00000000	      7.34576665	    -10.92200268	     34.62524346	     39.43000363	     44.32137521	      0.00000000	      0.00000000
      2.21000000	      0.99259942	      1.52853549	      3.07063856	      1.06449707	      0.98255756	     -0.27505100	     23.08101337	     -8.49861729	    -14.13332979	    -54.96912621	      5.41476085	      0.00000000	      0.00000000	      0.51182001	      6.11111113	     -0.46663485	    -11.91135285	     10.95109340	      0.00000000	      0.00000000	    -11.75493325	      0.05951816	     -6.22710095	     -4.87934685	    -10.81849832	     31.09516253	     39.30757488	     44.32485516	      0.00000000	      0.00000000	      8.43089367	    -11.11995544	     34.46676112	     39.95911456	     44.32485516	      0.00000000	      0.00000000
